<svg width="554" height="97" viewBox="0 0 554 97" fill="none" xmlns="http://www.w3.org/2000/svg">
<path d="M26.41 62.7715L1.97013 62.6862L2.00471 52.7801L24.6016 21.5496L36.3876 21.5907L36.2731 54.4182L42.4192 54.4397L42.3899 62.8273L36.2438 62.8058L36.211 72.2058L26.3772 72.1715L26.41 62.7715ZM26.8721 54.6746L26.9493 32.5486L26.6601 32.5476L11.6188 53.6091L11.6153 54.6214L26.8721 54.6746ZM48.5398 63.8611L48.6579 30.0213L57.0749 21.6629L79.4901 21.7412L87.8485 30.1581L87.7303 63.9979L79.3134 72.3562L56.8982 72.278L48.5398 63.8611ZM74.715 63.9524L77.9077 60.782L78.0036 33.3053L74.8332 30.1126L61.6732 30.0667L58.4806 33.2371L58.3847 60.7139L61.5551 63.9065L74.715 63.9524ZM118.345 63.0924L93.9049 63.0071L93.9394 53.101L116.536 21.8705L128.322 21.9116L128.208 54.7391L134.354 54.7606L134.325 63.1482L128.178 63.1268L128.146 72.5267L118.312 72.4924L118.345 63.0924ZM118.807 54.9955L118.884 32.8695L118.595 32.8685L103.554 53.93L103.55 54.9423L118.807 54.9955ZM204.786 22.1785L213.608 22.2093L236.048 56.634L236.192 56.6345L236.312 22.2886L245.784 22.3216L245.608 72.9367L236.786 72.9059L214.346 38.5535L214.201 38.553L214.082 72.8267L204.609 72.7936L204.786 22.1785ZM255.415 65.4509L255.488 44.4818L262.962 36.9878L283.642 37.06L291.063 44.606L290.99 65.5751L283.516 73.069L262.836 72.9969L255.415 65.4509ZM278.916 65.0991L281.456 62.5772L281.508 47.5373L278.986 44.9977L267.562 44.9578L265.022 47.4797L264.97 62.5196L267.491 65.0592L278.916 65.0991ZM302.569 65.7601L302.641 45.1526L296.133 45.1298L296.161 37.1037L302.814 37.127L302.855 25.4132L312.255 25.446L312.214 37.1598L323.204 37.1981L323.176 45.2965L312.185 45.2582L312.125 62.6842L314.575 65.0789L323.107 65.1087L323.079 73.2071L309.991 73.1615L302.569 65.7601ZM355.174 45.3359L348.666 45.3132L348.694 37.2871L355.202 37.3098L355.227 30.1514L362.556 22.8739L375.86 22.9203L375.833 30.8018L366.65 30.7697L364.618 32.7873L364.602 37.3426L375.81 37.3818L375.782 45.4079L364.719 45.3692L364.621 73.3522L355.076 73.3188L355.174 45.3359ZM380.111 65.8862L380.184 44.9171L387.658 37.4231L408.338 37.4953L415.759 45.0413L415.686 66.0104L408.212 73.5043L387.532 73.4321L380.111 65.8862ZM403.612 65.5344L406.152 63.0124L406.204 47.9725L403.682 45.4329L392.258 45.3931L389.718 47.915L389.666 62.9549L392.188 65.4945L403.612 65.5344ZM424.71 65.9696L424.809 37.5528L434.354 37.5861L434.265 63.0383L436.715 65.5053L442.499 65.5255L449.61 58.4641L449.683 37.6396L459.227 37.6729L459.102 73.682L450.28 73.6512L450.302 67.505L444.062 73.6295L432.276 73.5883L424.71 65.9696ZM469.337 37.7082L478.159 37.739L478.138 43.7405L484.16 37.76L495.802 37.8006L503.8 45.8547L503.702 73.8376L494.158 73.8043L494.246 48.4245L491.797 45.8851L485.723 45.8639L478.829 52.7815L478.756 73.7506L469.212 73.7172L469.337 37.7082ZM512.752 66.3492L512.825 45.3801L520.299 37.8861L534.616 37.9361L538.869 41.6387L538.937 22.3326L548.481 22.3659L548.301 73.9933L539.335 73.962L539.354 68.3944L533.767 73.9426L520.174 73.8951L512.752 66.3492ZM532.928 65.8411L538.806 59.8601L538.839 50.4601L533.937 46.0322L525.116 46.0015L522.358 48.8118L522.309 62.9841L525.046 65.8136L532.928 65.8411Z" fill="#D69B24"/>
<rect x="164.133" y="9.65198" width="9" height="72" transform="rotate(0.2 164.133 9.65198)" fill="#D69B24"/>
</svg>
