<svg width="211" height="33" viewBox="0 0 211 33" fill="none" xmlns="http://www.w3.org/2000/svg">
<path d="M27.3185 32.0155L13.803 15.0493L26.4558 0.0480957H17.11L7.57249 12.1257V0.0480957H0V21.6632L7.57249 12.1257V18.2125L18.0206 32.0155H27.3185ZM7.57249 22.9093L0 32.0155H7.57249V22.9093Z" fill="#E8A722"/>
<path d="M53.2433 0.0479262V19.0271C53.2433 23.2926 50.799 25.7848 46.5335 25.7848C42.268 25.7848 39.7758 23.2926 39.7758 19.0271V0.0479262H32.1074V19.2667C32.1074 27.1267 36.8043 32.5904 46.5335 32.5904C56.2627 32.5904 60.9595 27.1267 60.9595 19.1708V0H53.2433V0.0479262Z" fill="#E8A722"/>
<path d="M65.7129 0.0478516V6.80557H74.6753V32.0152H82.2957V6.80557H91.2101V0.0478516H65.7129Z" fill="#E8A722"/>
<path d="M96.042 0.0478516V6.80557H105.004V32.0152H112.625V6.80557H121.539V0.0478516H96.042Z" fill="#E8A722"/>
<path d="M147.507 0.0479262V19.0271C147.507 23.2926 145.063 25.7848 140.797 25.7848C136.532 25.7848 134.039 23.2926 134.039 19.0271V0.0479262H126.371V19.2667C126.371 27.1267 131.068 32.5904 140.797 32.5904C150.526 32.5904 155.223 27.1267 155.223 19.1708V0H147.507V0.0479262Z" fill="#E8A722"/>
<path d="M178.667 19.8418C182.118 19.0271 185.665 16.0077 185.665 10.3523C185.665 4.40929 181.543 0 174.929 0H159.976V31.9674H167.548V21.4234H171.286L177.133 32.0153H185.856L178.667 19.8418ZM167.548 6.80565H173.874C176.367 6.80565 177.9 8.19553 177.9 10.3523C177.9 12.461 176.319 13.8989 173.874 13.8989H167.548V6.80565Z" fill="#E8A722"/>
<path d="M198.25 25.2575V0.0478516H190.678V32.0152H210.999V25.2575H198.25Z" fill="#E8A722"/>
</svg>
